name D:\school\WTK\thesis\model\3dpredictsim\Results\debug_batch\Pog_s1_tmt_aCst_d05_k1000_ig24.mot
datacolumns 128
datarows 4
range 1.08133541 1.11377548
endheader
time	pelvis_tilt	pelvis_list	pelvis_rotation	pelvis_tx	pelvis_ty	pelvis_tz	hip_flexion_l	hip_adduction_l	hip_rotation_l	hip_flexion_r	hip_adduction_r	hip_rotation_r	knee_angle_l	knee_angle_r	ankle_angle_l	ankle_angle_r	subtalar_angle_l	subtalar_angle_r	tmt_angle_l	tmt_angle_r	mtp_angle_l	mtp_angle_r	lumbar_extension	lumbar_bending	lumbar_rotation	arm_flex_l	arm_add_l	arm_rot_l	arm_flex_r	arm_add_r	arm_rot_r	elbow_flex_l	elbow_flex_r	pro_sup_l	pro_sup_r	glut_med1_l/activation	glut_med2_l/activation	glut_med3_l/activation	glut_min1_l/activation	glut_min2_l/activation	glut_min3_l/activation	semimem_l/activation	semiten_l/activation	bifemlh_l/activation	bifemsh_l/activation	sar_l/activation	add_long_l/activation	add_brev_l/activation	add_mag1_l/activation	add_mag2_l/activation	add_mag3_l/activation	tfl_l/activation	pect_l/activation	grac_l/activation	glut_max1_l/activation	glut_max2_l/activation	glut_max3_l/activation	iliacus_l/activation	psoas_l/activation	quad_fem_l/activation	gem_l/activation	peri_l/activation	rect_fem_l/activation	vas_med_l/activation	vas_int_l/activation	vas_lat_l/activation	med_gas_l/activation	lat_gas_l/activation	soleus_l/activation	tib_post_l/activation	flex_dig_l/activation	flex_hal_l/activation	tib_ant_l/activation	per_brev_l/activation	per_long_l/activation	per_tert_l/activation	ext_dig_l/activation	ext_hal_l/activation	ercspn_l/activation	intobl_l/activation	extobl_l/activation	glut_med1_r/activation	glut_med2_r/activation	glut_med3_r/activation	glut_min1_r/activation	glut_min2_r/activation	glut_min3_r/activation	semimem_r/activation	semiten_r/activation	bifemlh_r/activation	bifemsh_r/activation	sar_r/activation	add_long_r/activation	add_brev_r/activation	add_mag1_r/activation	add_mag2_r/activation	add_mag3_r/activation	tfl_r/activation	pect_r/activation	grac_r/activation	glut_max1_r/activation	glut_max2_r/activation	glut_max3_r/activation	iliacus_r/activation	psoas_r/activation	quad_fem_r/activation	gem_r/activation	peri_r/activation	rect_fem_r/activation	vas_med_r/activation	vas_int_r/activation	vas_lat_r/activation	med_gas_r/activation	lat_gas_r/activation	soleus_r/activation	tib_post_r/activation	flex_dig_r/activation	flex_hal_r/activation	tib_ant_r/activation	per_brev_r/activation	per_long_r/activation	per_tert_r/activation	ext_dig_r/activation	ext_hal_r/activation	ercspn_r/activation	intobl_r/activation	extobl_r/activation	
          1.08133541	         -2.92823905	         -2.26323658	          5.63038726	          1.35166927	          0.85763741	         -0.00205110	        -17.85563643	         -1.91146238	          7.03985188	         31.50164703	          3.22686385	         -1.94645495	         -8.02510510	        -14.95726978	          0.20307989	          6.41323977	         10.98948104	         -2.88212859	          1.68812809	          0.03818497	         21.94409936	         -0.10785153	         -1.84706496	          0.63519120	         -1.97847257	          7.90535822	        -13.45910252	         18.06625305	         -8.77971711	        -13.54614702	          8.49450847	         35.20377229	         13.54365137	         86.51662706	         86.51662706	          0.28638030	          0.10231264	          0.06964650	          0.31153415	          0.21427198	          0.10749534	          0.05000202	          0.05000022	          0.05000014	          0.07241095	          0.10707226	          0.10411720	          0.07060931	          0.05000193	          0.05000247	          0.05000076	          0.31276494	          0.11284584	          0.05000172	          0.05000214	          0.05000123	          0.05000104	          0.34651749	          0.57778342	          0.05000026	          0.05000053	          0.05000033	          0.20885412	          0.09533155	          0.06255945	          0.05802388	          0.29625708	          0.39965480	          0.29017732	          0.25558026	          0.25838568	          0.33687707	          0.05000003	          0.05901136	          0.16052165	          0.05000023	          0.05000006	          0.05000019	          0.05000005	          0.05000006	          0.05000006	          0.05901082	          0.05901041	          0.05000014	          0.05901117	          0.05901113	          0.05000759	          0.05901105	          0.05000364	          0.20224980	          0.05000055	          0.05000135	          0.12575724	          0.29084288	          0.12385776	          0.11811585	          0.09724580	          0.05000014	          0.08219355	          0.09530169	          0.05000033	          0.13202073	          0.14750849	          0.05901131	          0.05000233	          0.20069268	          0.26031290	          0.14010017	          0.05934744	          0.15061835	          0.14889832	          0.13047549	          0.05109995	          0.05173211	          0.05635603	          0.05000001	          0.05000039	          0.05000036	          0.57544690	          0.36194816	          0.20113513	          0.37754302	          0.56552098	          0.30100300	          0.06409426	          0.09866065	          0.10433977	
          1.09214877	         -2.92143884	         -2.35037038	          5.91224032	          1.36801176	          0.85659073	         -0.00185145	        -17.65845331	         -2.20535728	          6.80794965	         30.84086986	          3.57331686	         -1.69155913	        -10.05820407	        -15.13926551	         -0.61461213	          5.77876070	         11.93484586	         -3.34827703	          1.44100076	          0.02503384	         22.97895142	         -0.06645700	         -1.64441391	          0.85250561	         -2.05000289	          7.70797566	        -13.47031685	         18.23149120	         -9.84225502	        -13.53846826	          8.36800751	         36.32599192	         13.44695274	         86.51662706	         86.51662706	          0.24264946	          0.08668930	          0.05901143	          0.26396232	          0.18155225	          0.09108062	          0.05000877	          0.05000151	          0.05003476	          0.06135367	          0.09072229	          0.19384918	          0.13575523	          0.06964696	          0.05901480	          0.05901283	          0.26500521	          0.09561921	          0.05007875	          0.05000872	          0.05001439	          0.05901109	          0.29360358	          0.53049364	          0.05901124	          0.05901239	          0.05901125	          0.17696169	          0.10604866	          0.15948232	          0.15947362	          0.25101798	          0.33862666	          0.24586661	          0.21655273	          0.21893003	          0.28543547	          0.05000002	          0.05000031	          0.14329466	          0.05000009	          0.05000002	          0.05000012	          0.05572373	          0.06389720	          0.05515971	          0.05000002	          0.05000007	          0.11428673	          0.05000008	          0.05000009	          0.05000013	          0.05000009	          0.05000016	          0.17136586	          0.05000010	          0.05000113	          0.10655397	          0.24643075	          0.33132301	          0.20930157	          0.11541863	          0.05000181	          0.06964409	          0.08082363	          0.07991400	          0.11680223	          0.12498376	          0.05000026	          0.05902371	          0.40696616	          0.22056260	          0.11870662	          0.06964578	          0.17411240	          0.18773093	          0.15568868	          0.05000033	          0.05901742	          0.05000002	          0.06390498	          0.06964693	          0.06964612	          0.48757498	          0.39546574	          0.23366032	          0.31989161	          0.52199441	          0.25503926	          0.05430693	          0.08359496	          0.08840686	
          1.10296212	         -2.91093302	         -2.43773522	          6.16492676	          1.38460310	          0.85554312	         -0.00166246	        -17.37835802	         -2.48938423	          6.56442477	         30.01378885	          3.85511450	         -1.41337483	        -12.22667506	        -15.57079727	         -1.60644056	          5.32501917	         12.80992706	         -3.83269223	          1.19564929	         -0.01191482	         23.84120140	         -0.18813064	         -1.42366431	          1.07619106	         -2.11052014	          7.42441868	        -13.48157419	         18.31613102	        -10.90596929	        -13.53505603	          8.29307191	         37.42567676	         13.38168635	         86.51662706	         86.51662706	          0.34307406	          0.07345169	          0.05000036	          0.35605582	          0.15382896	          0.07717247	          0.05076887	          0.05000024	          0.05000019	          0.05198495	          0.07687115	          0.16424808	          0.11502523	          0.05901182	          0.05000340	          0.05000161	          0.26215175	          0.08101951	          0.05000103	          0.05000274	          0.05000130	          0.05000087	          0.24876987	          0.49813445	          0.05000029	          0.05000148	          0.05000035	          0.14993929	          0.08985489	          0.13512910	          0.13512173	          0.21268699	          0.28691764	          0.20832225	          0.18348469	          0.18549908	          0.24184896	          0.05000008	          0.10250950	          0.18359172	          0.05000021	          0.05000095	          0.05000036	          0.05962749	          0.05413997	          0.05000007	          0.25731818	          0.25983065	          0.32525141	          0.35603468	          0.22790531	          0.20247845	          0.07629240	          0.06223539	          0.14797151	          0.08219887	          0.05901065	          0.09028302	          0.20880031	          0.28072939	          0.17734093	          0.10548415	          0.05000046	          0.05901582	          0.06848395	          0.17053554	          0.15375014	          0.10589864	          0.05654116	          0.05001083	          0.34482164	          0.18688240	          0.25248361	          0.05901074	          0.14752513	          0.15906411	          0.13191474	          0.05000097	          0.05000550	          0.05549695	          0.05414660	          0.05901187	          0.05901131	          0.57479423	          0.42076856	          0.21330822	          0.45474050	          0.60556822	          0.31061332	          0.06680028	          0.10249198	          0.07490695	
          1.11377548	         -2.89869171	         -2.51548414	          6.38156789	          1.40123222	          0.85452433	         -0.00145056	        -16.99304969	         -2.75541945	          6.32658981	         29.11361780	          4.12050670	         -1.13714512	        -14.54154376	        -15.94759379	         -2.72724737	          4.96521691	         13.62632867	         -4.33665118	          0.92026999	         -0.01808213	         24.43191214	         -0.19036958	         -1.20673365	          1.29552423	         -2.16078406	          7.09098212	        -13.49945407	         18.34527347	        -11.91927385	        -13.53125656	          8.27984168	         38.47928418	         13.31563658	         86.51662706	         86.51662706	          0.29068603	          0.06223548	          0.05000007	          0.30168551	          0.13033902	          0.06538812	          0.06848135	          0.05000020	          0.05000020	          0.05000011	          0.06513300	          0.18470267	          0.14712828	          0.05000160	          0.05000606	          0.05004168	          0.22212111	          0.06865249	          0.05000061	          0.05000224	          0.05000155	          0.05000116	          0.21078221	          0.44752236	          0.05000015	          0.05000055	          0.05000016	          0.12704325	          0.11449568	          0.11449574	          0.11449565	          0.18020923	          0.24310470	          0.17651099	          0.15546622	          0.15717310	          0.20491820	          0.10310227	          0.15678734	          0.15555914	          0.05000266	          0.17143173	          0.05000168	          0.09421576	          0.05000001	          0.05000005	          0.35214842	          0.37492830	          0.42459630	          0.30166795	          0.19310598	          0.26290770	          0.07363254	          0.11309344	          0.12537604	          0.06964719	          0.05000061	          0.07649668	          0.17691615	          0.23786266	          0.21780161	          0.16172841	          0.05000031	          0.05001237	          0.12288227	          0.25338613	          0.20131988	          0.16101734	          0.05000014	          0.05000013	          0.29216672	          0.15834516	          0.23472428	          0.05000004	          0.16607904	          0.21903833	          0.16398073	          0.05000002	          0.05000004	          0.05000000	          0.05000000	          0.05000073	          0.05000026	          0.63820450	          0.35651658	          0.18073581	          0.68262231	          0.62611538	          0.39832476	          0.08383723	          0.08684124	          0.06346850	
